<mxfile host="www.draw.io" modified="2020-01-09T13:53:03.366Z" agent="Mozilla/5.0 (Windows NT 10.0; Win64; x64; rv:71.0) Gecko/20100101 Firefox/71.0" etag="JZx8s6UFZA-27ZvKMbWs" version="12.5.1" type="github">
  <diagram id="0oTUwJ_TbJvLSXzjG2mQ" name="Page-1">
    <mxGraphModel dx="1421" dy="769" grid="1" gridSize="10" guides="1" tooltips="1" connect="1" arrows="1" fold="1" page="1" pageScale="1" pageWidth="1400" pageHeight="850" math="0" shadow="0">
      <root>
        <mxCell id="0"/>
        <mxCell id="1" parent="0"/>
        <mxCell id="kvPsr2nti3YDyyiAbsfY-23" value="Core" style="rounded=0;whiteSpace=wrap;html=1;labelPosition=left;verticalLabelPosition=middle;align=right;verticalAlign=middle;labelBackgroundColor=none;" vertex="1" parent="1">
          <mxGeometry x="70" y="420" width="380" height="50" as="geometry"/>
        </mxCell>
        <mxCell id="kvPsr2nti3YDyyiAbsfY-35" value="&lt;div align=&quot;center&quot;&gt;&lt;font style=&quot;font-size: 12px&quot;&gt;Uses&lt;/font&gt;&lt;/div&gt;" style="edgeStyle=none;shape=flexArrow;rounded=0;orthogonalLoop=1;jettySize=auto;html=1;exitX=0.5;exitY=1;exitDx=0;exitDy=0;entryX=0.205;entryY=-0.018;entryDx=0;entryDy=0;align=center;entryPerimeter=0;" edge="1" parent="1" source="kvPsr2nti3YDyyiAbsfY-24" target="kvPsr2nti3YDyyiAbsfY-23">
          <mxGeometry x="-0.3333" y="-35" relative="1" as="geometry">
            <mxPoint as="offset"/>
          </mxGeometry>
        </mxCell>
        <mxCell id="kvPsr2nti3YDyyiAbsfY-24" value="&lt;div align=&quot;right&quot;&gt;Web &lt;br&gt;&lt;/div&gt;&lt;div align=&quot;right&quot;&gt;Experience &lt;br&gt;&lt;/div&gt;&lt;div align=&quot;right&quot;&gt;Toolkit&lt;br&gt;&lt;/div&gt;" style="rounded=0;whiteSpace=wrap;html=1;labelPosition=left;verticalLabelPosition=middle;align=right;verticalAlign=middle;labelBackgroundColor=none;" vertex="1" parent="1">
          <mxGeometry x="70" y="320" width="150" height="50" as="geometry"/>
        </mxCell>
        <mxCell id="kvPsr2nti3YDyyiAbsfY-1" value="" style="shape=actor;whiteSpace=wrap;html=1;" vertex="1" parent="1">
          <mxGeometry x="204.5" y="40" width="40" height="50" as="geometry"/>
        </mxCell>
        <mxCell id="kvPsr2nti3YDyyiAbsfY-2" value="Client" style="text;html=1;align=center;verticalAlign=middle;resizable=0;points=[];autosize=1;" vertex="1" parent="1">
          <mxGeometry x="199.5" y="90" width="50" height="20" as="geometry"/>
        </mxCell>
        <mxCell id="kvPsr2nti3YDyyiAbsfY-3" value="Cloud Instrastructure" style="rounded=0;whiteSpace=wrap;html=1;labelPosition=center;verticalLabelPosition=top;align=center;verticalAlign=bottom;" vertex="1" parent="1">
          <mxGeometry x="490" y="70" width="435" height="400" as="geometry"/>
        </mxCell>
        <mxCell id="kvPsr2nti3YDyyiAbsfY-4" value="" style="dashed=0;outlineConnect=0;html=1;align=center;labelPosition=center;verticalLabelPosition=bottom;verticalAlign=top;shape=mxgraph.weblogos.chrome;rounded=0;" vertex="1" parent="1">
          <mxGeometry x="79.80000000000001" y="149.6" width="74.8" height="75.4" as="geometry"/>
        </mxCell>
        <mxCell id="kvPsr2nti3YDyyiAbsfY-6" value="" style="shape=image;html=1;verticalAlign=top;verticalLabelPosition=bottom;labelBackgroundColor=#ffffff;imageAspect=0;aspect=fixed;image=https://cdn3.iconfinder.com/data/icons/browsers-1/512/Browser_D-128.png;rounded=0;" vertex="1" parent="1">
          <mxGeometry x="174.59999999999997" y="145" width="80" height="80" as="geometry"/>
        </mxCell>
        <mxCell id="kvPsr2nti3YDyyiAbsfY-7" value="" style="shape=image;html=1;verticalAlign=top;verticalLabelPosition=bottom;labelBackgroundColor=#ffffff;imageAspect=0;aspect=fixed;image=https://cdn1.iconfinder.com/data/icons/smallicons-logotypes/32/firefox-128.png;rounded=0;" vertex="1" parent="1">
          <mxGeometry x="284.59999999999997" y="140" width="84.6" height="84.6" as="geometry"/>
        </mxCell>
        <mxCell id="kvPsr2nti3YDyyiAbsfY-8" value="" style="endArrow=none;html=1;entryX=0.6;entryY=1;entryDx=0;entryDy=0;entryPerimeter=0;" edge="1" parent="1" target="kvPsr2nti3YDyyiAbsfY-2">
          <mxGeometry width="50" height="50" relative="1" as="geometry">
            <mxPoint x="119.5" y="130" as="sourcePoint"/>
            <mxPoint x="219.5" y="120" as="targetPoint"/>
            <Array as="points">
              <mxPoint x="159.5" y="120"/>
              <mxPoint x="229.5" y="120"/>
            </Array>
          </mxGeometry>
        </mxCell>
        <mxCell id="kvPsr2nti3YDyyiAbsfY-10" value="" style="endArrow=none;html=1;" edge="1" parent="1">
          <mxGeometry width="50" height="50" relative="1" as="geometry">
            <mxPoint x="329.5" y="130" as="sourcePoint"/>
            <mxPoint x="219.5" y="120" as="targetPoint"/>
            <Array as="points">
              <mxPoint x="299.5" y="120"/>
            </Array>
          </mxGeometry>
        </mxCell>
        <mxCell id="kvPsr2nti3YDyyiAbsfY-15" value="HTML5" style="rounded=0;whiteSpace=wrap;html=1;" vertex="1" parent="1">
          <mxGeometry x="76.45" y="430" width="81.5" height="30" as="geometry"/>
        </mxCell>
        <mxCell id="kvPsr2nti3YDyyiAbsfY-16" value="CSS3" style="rounded=0;whiteSpace=wrap;html=1;" vertex="1" parent="1">
          <mxGeometry x="154.6" y="430" width="80" height="30" as="geometry"/>
        </mxCell>
        <mxCell id="kvPsr2nti3YDyyiAbsfY-17" value="JS" style="rounded=0;whiteSpace=wrap;html=1;" vertex="1" parent="1">
          <mxGeometry x="234.6" y="430" width="60" height="30" as="geometry"/>
        </mxCell>
        <mxCell id="kvPsr2nti3YDyyiAbsfY-26" value="Cookie" style="rounded=0;whiteSpace=wrap;html=1;" vertex="1" parent="1">
          <mxGeometry x="294.6" y="430" width="65.4" height="30" as="geometry"/>
        </mxCell>
        <mxCell id="kvPsr2nti3YDyyiAbsfY-27" value="Session Storage" style="rounded=0;whiteSpace=wrap;html=1;" vertex="1" parent="1">
          <mxGeometry x="360" y="430" width="80" height="30" as="geometry"/>
        </mxCell>
        <mxCell id="kvPsr2nti3YDyyiAbsfY-60" value="HTTPS" style="edgeStyle=none;shape=flexArrow;rounded=0;orthogonalLoop=1;jettySize=auto;html=1;" edge="1" parent="1" source="kvPsr2nti3YDyyiAbsfY-33" target="kvPsr2nti3YDyyiAbsfY-53">
          <mxGeometry relative="1" as="geometry"/>
        </mxCell>
        <mxCell id="kvPsr2nti3YDyyiAbsfY-33" value="React" style="rounded=0;whiteSpace=wrap;html=1;labelBackgroundColor=none;" vertex="1" parent="1">
          <mxGeometry x="70" y="250" width="380" height="30" as="geometry"/>
        </mxCell>
        <mxCell id="kvPsr2nti3YDyyiAbsfY-36" value="Polyfills" style="rounded=0;whiteSpace=wrap;html=1;labelBackgroundColor=none;align=center;" vertex="1" parent="1">
          <mxGeometry x="79.8" y="330" width="50" height="30" as="geometry"/>
        </mxCell>
        <mxCell id="kvPsr2nti3YDyyiAbsfY-37" value="Bootstrap 3" style="rounded=0;whiteSpace=wrap;html=1;labelBackgroundColor=none;align=center;" vertex="1" parent="1">
          <mxGeometry x="140" y="330" width="70" height="30" as="geometry"/>
        </mxCell>
        <mxCell id="kvPsr2nti3YDyyiAbsfY-38" value="WET 5" style="rounded=0;whiteSpace=wrap;html=1;labelBackgroundColor=none;align=center;" vertex="1" parent="1">
          <mxGeometry x="374.6" y="320" width="75.4" height="50" as="geometry"/>
        </mxCell>
        <mxCell id="kvPsr2nti3YDyyiAbsfY-39" value="Auroro" style="rounded=0;whiteSpace=wrap;html=1;labelBackgroundColor=none;align=center;" vertex="1" parent="1">
          <mxGeometry x="254.6" y="320" width="90" height="50" as="geometry"/>
        </mxCell>
        <mxCell id="kvPsr2nti3YDyyiAbsfY-40" value="OR" style="text;html=1;align=center;verticalAlign=middle;resizable=0;points=[];autosize=1;" vertex="1" parent="1">
          <mxGeometry x="220" y="330" width="30" height="20" as="geometry"/>
        </mxCell>
        <mxCell id="kvPsr2nti3YDyyiAbsfY-41" value="OR" style="text;html=1;align=center;verticalAlign=middle;resizable=0;points=[];autosize=1;" vertex="1" parent="1">
          <mxGeometry x="344.6" y="330" width="30" height="20" as="geometry"/>
        </mxCell>
        <mxCell id="kvPsr2nti3YDyyiAbsfY-42" value="&lt;div align=&quot;center&quot;&gt;&lt;font style=&quot;font-size: 12px&quot;&gt;Uses&lt;/font&gt;&lt;/div&gt;" style="edgeStyle=none;shape=flexArrow;rounded=0;orthogonalLoop=1;jettySize=auto;html=1;exitX=0.5;exitY=1;exitDx=0;exitDy=0;align=center;" edge="1" parent="1">
          <mxGeometry x="-0.3333" y="-35" relative="1" as="geometry">
            <mxPoint x="294.6" y="370.9" as="sourcePoint"/>
            <mxPoint x="298" y="420" as="targetPoint"/>
            <mxPoint as="offset"/>
          </mxGeometry>
        </mxCell>
        <mxCell id="kvPsr2nti3YDyyiAbsfY-43" value="&lt;div align=&quot;center&quot;&gt;&lt;font style=&quot;font-size: 12px&quot;&gt;Uses&lt;/font&gt;&lt;/div&gt;" style="edgeStyle=none;shape=flexArrow;rounded=0;orthogonalLoop=1;jettySize=auto;html=1;exitX=0.5;exitY=1;exitDx=0;exitDy=0;align=center;" edge="1" parent="1">
          <mxGeometry x="-0.3333" y="-35" relative="1" as="geometry">
            <mxPoint x="410" y="370" as="sourcePoint"/>
            <mxPoint x="413.4" y="419.0999999999999" as="targetPoint"/>
            <mxPoint as="offset"/>
          </mxGeometry>
        </mxCell>
        <mxCell id="kvPsr2nti3YDyyiAbsfY-44" value="Hyperledger Fabric Network" style="rounded=0;whiteSpace=wrap;html=1;labelBackgroundColor=none;align=center;" vertex="1" parent="1">
          <mxGeometry x="517.5" y="390" width="380" height="55" as="geometry"/>
        </mxCell>
        <mxCell id="kvPsr2nti3YDyyiAbsfY-45" value="Server Application" style="rounded=0;whiteSpace=wrap;html=1;labelBackgroundColor=none;align=center;labelPosition=center;verticalLabelPosition=top;verticalAlign=bottom;" vertex="1" parent="1">
          <mxGeometry x="520" y="224.6" width="380" height="120" as="geometry"/>
        </mxCell>
        <mxCell id="kvPsr2nti3YDyyiAbsfY-46" value="UI Application" style="rounded=0;whiteSpace=wrap;html=1;labelBackgroundColor=none;align=center;labelPosition=center;verticalLabelPosition=top;verticalAlign=bottom;" vertex="1" parent="1">
          <mxGeometry x="515" y="110" width="382.5" height="50" as="geometry"/>
        </mxCell>
        <mxCell id="kvPsr2nti3YDyyiAbsfY-47" value="NodeJS" style="rounded=0;whiteSpace=wrap;html=1;labelBackgroundColor=none;align=center;" vertex="1" parent="1">
          <mxGeometry x="550" y="119.6" width="120" height="30" as="geometry"/>
        </mxCell>
        <mxCell id="kvPsr2nti3YDyyiAbsfY-48" value="NodeJS" style="rounded=0;whiteSpace=wrap;html=1;labelBackgroundColor=none;align=center;" vertex="1" parent="1">
          <mxGeometry x="646.25" y="270" width="120" height="30" as="geometry"/>
        </mxCell>
        <mxCell id="kvPsr2nti3YDyyiAbsfY-49" value="Express" style="rounded=0;whiteSpace=wrap;html=1;labelBackgroundColor=none;align=center;" vertex="1" parent="1">
          <mxGeometry x="646.25" y="239.6" width="120" height="30" as="geometry"/>
        </mxCell>
        <mxCell id="kvPsr2nti3YDyyiAbsfY-50" value="Swagger" style="rounded=0;whiteSpace=wrap;html=1;labelBackgroundColor=none;align=center;" vertex="1" parent="1">
          <mxGeometry x="766.25" y="239.60000000000002" width="120" height="30.4" as="geometry"/>
        </mxCell>
        <mxCell id="kvPsr2nti3YDyyiAbsfY-51" value="JSON Web Token" style="rounded=0;whiteSpace=wrap;html=1;labelBackgroundColor=none;align=center;" vertex="1" parent="1">
          <mxGeometry x="766.25" y="270" width="120" height="30" as="geometry"/>
        </mxCell>
        <mxCell id="kvPsr2nti3YDyyiAbsfY-53" value="API" style="rounded=0;whiteSpace=wrap;html=1;labelBackgroundColor=none;align=center;" vertex="1" parent="1">
          <mxGeometry x="500" y="260" width="60" height="40" as="geometry"/>
        </mxCell>
        <mxCell id="kvPsr2nti3YDyyiAbsfY-54" value="API" style="rounded=0;whiteSpace=wrap;html=1;labelBackgroundColor=none;align=center;" vertex="1" parent="1">
          <mxGeometry x="676.25" y="370" width="60" height="40" as="geometry"/>
        </mxCell>
        <mxCell id="kvPsr2nti3YDyyiAbsfY-55" value="Wallet" style="rounded=0;whiteSpace=wrap;html=1;labelBackgroundColor=none;align=center;" vertex="1" parent="1">
          <mxGeometry x="647.5" y="310" width="120" height="30" as="geometry"/>
        </mxCell>
        <mxCell id="kvPsr2nti3YDyyiAbsfY-58" value="" style="edgeStyle=none;shape=flexArrow;rounded=0;orthogonalLoop=1;jettySize=auto;html=1;entryX=0.5;entryY=0;entryDx=0;entryDy=0;" edge="1" parent="1" source="kvPsr2nti3YDyyiAbsfY-56" target="kvPsr2nti3YDyyiAbsfY-54">
          <mxGeometry relative="1" as="geometry"/>
        </mxCell>
        <mxCell id="kvPsr2nti3YDyyiAbsfY-56" value="Fabric Client" style="rounded=0;whiteSpace=wrap;html=1;labelBackgroundColor=none;align=center;" vertex="1" parent="1">
          <mxGeometry x="766.25" y="310" width="120" height="30" as="geometry"/>
        </mxCell>
        <mxCell id="kvPsr2nti3YDyyiAbsfY-59" value="HTTPS" style="edgeStyle=none;shape=flexArrow;rounded=0;orthogonalLoop=1;jettySize=auto;html=1;entryX=0;entryY=0.75;entryDx=0;entryDy=0;exitX=0.874;exitY=-0.067;exitDx=0;exitDy=0;exitPerimeter=0;" edge="1" parent="1" source="kvPsr2nti3YDyyiAbsfY-33" target="kvPsr2nti3YDyyiAbsfY-47">
          <mxGeometry relative="1" as="geometry"/>
        </mxCell>
      </root>
    </mxGraphModel>
  </diagram>
</mxfile>
